<svg xmlns="http://www.w3.org/2000/svg" width="24" height="16" viewBox="0 0 24 16" fill="none">
  <path d="M0 0H24V16H0V0Z" fill="#009B3A"/>
  <path d="M12.0001 0.902908L21.586 7.98595L12.0001 15.0643L2.36731 7.98595L12.0001 0.902908Z" fill="#FEDF00"/>
  <path d="M12.0001 11.7614C14.0774 11.7614 15.7615 10.0774 15.7615 8.00001C15.7615 5.92264 14.0774 4.2386 12.0001 4.2386C9.92268 4.2386 8.23865 5.92264 8.23865 8.00001C8.23865 10.0774 9.92268 11.7614 12.0001 11.7614Z" fill="white"/>
  <path d="M10.1006 7.75204C9.45034 7.75204 8.81876 7.85029 8.22461 8.03274C8.25268 10.0865 9.92286 11.7427 11.9813 11.7427C13.2538 11.7427 14.3813 11.1064 15.0597 10.138C13.8948 8.68772 12.103 7.75204 10.1006 7.75204ZM15.6679 8.70175C15.71 8.46783 15.7381 8.22924 15.7381 7.98128C15.7381 5.90409 14.0538 4.21988 11.9767 4.21988C10.4281 4.21988 9.09946 5.16023 8.51935 6.49356C9.02929 6.39064 9.55326 6.3345 10.0913 6.3345C12.2807 6.33918 14.255 7.24678 15.6679 8.70175Z" fill="#002776"/>
</svg>